<svg
              xmlns="http://www.w3.org/2000/svg"
              width="17"
              height="17"
              viewBox="0 0 17 17"
              fill="none"
            >
              <path
                fillRule="evenodd"
                clipRule="evenodd"
                d="M15.5845 10.1007V15.5833H12.5298V10.4609C12.5298 9.18028 12.1098 8.29987 11.0024 8.29987C10.1624 8.29987 9.66597 8.90016 9.43686 9.46042C9.36049 9.66051 9.32231 9.94064 9.32231 10.2208V15.5833H6.26758C6.26758 15.5833 6.30576 6.89921 6.26758 6.0188H9.32231V7.37944C9.32231 7.37944 9.32231 7.41945 9.28413 7.41945H9.32231V7.37944C9.74234 6.73914 10.4297 5.77869 12.0716 5.77869C14.0571 5.77869 15.5845 7.17935 15.5845 10.1007ZM3.13528 1.41663C2.10431 1.41663 1.41699 2.13697 1.41699 3.0574C1.41699 3.97783 2.06612 4.69818 3.0971 4.69818H3.13528C4.20444 4.69818 4.85357 3.97783 4.85357 3.0574C4.81539 2.13697 4.16625 1.41663 3.13528 1.41663ZM1.56934 15.5833H4.58589V6.0188H1.56934V15.5833Z"
                fill="#535353"
              />
            </svg>