<svg
              xmlns="http://www.w3.org/2000/svg"
              width="17"
              height="17"
              viewBox="0 0 17 17"
              fill="none"
            >
              <path
                fillRule="evenodd"
                clipRule="evenodd"
                d="M8.46667 1.41663C9.40912 1.45016 10.3852 1.45016 11.3277 1.4837C12.1692 1.51723 12.9433 1.65137 13.6838 2.08733C14.6263 2.65742 15.1985 3.4958 15.4004 4.56892C15.5014 5.20608 15.535 5.87678 15.5687 6.51395C15.6024 7.92241 15.5687 9.33088 15.5687 10.7393C15.5687 11.4771 15.535 12.2149 15.2994 12.9191C14.8282 14.2941 13.8521 15.1324 12.4384 15.4007C11.7989 15.5349 11.1257 15.5349 10.4862 15.5684C9.07252 15.6019 7.69251 15.5684 6.27883 15.5684C5.53834 15.5684 4.79784 15.5349 4.09101 15.3001C2.71099 14.8306 1.86952 13.8581 1.60025 12.4496C1.46561 11.8125 1.46561 11.1418 1.43195 10.5046C1.39829 9.09614 1.43195 7.68767 1.43195 6.2792C1.43195 5.54143 1.46561 4.80366 1.70122 4.09942C2.17245 2.72449 3.14856 1.88612 4.56223 1.61784C5.20175 1.4837 5.87493 1.4837 6.51445 1.45016C7.15397 1.41663 7.79349 1.41663 8.46667 1.41663ZM14.2906 8.35844C14.2569 8.35844 14.2906 8.35844 14.2906 8.35844C14.2569 7.78835 14.2569 7.25178 14.2569 6.68169C14.2569 6.14513 14.2233 5.60857 14.156 5.07201C14.0213 3.86475 13.3145 3.05991 12.1364 2.82517C11.5306 2.69103 10.8574 2.69103 10.2515 2.69103C9.0398 2.65749 7.86173 2.65749 6.65001 2.69103C6.04415 2.69103 5.43829 2.72456 4.86609 2.82517C3.85632 2.99284 3.14948 3.56294 2.84656 4.56899C2.74558 4.90434 2.71192 5.23969 2.67826 5.57503C2.6446 6.84937 2.6446 8.12369 2.6446 9.39802C2.6446 10.2029 2.67826 11.0412 2.74558 11.8461C2.84656 13.0533 3.58705 13.8917 4.79877 14.0929C5.40463 14.1935 6.04415 14.2271 6.68367 14.2271C7.86173 14.2606 9.0398 14.2271 10.2515 14.2271C10.7901 14.2271 11.3286 14.1935 11.8671 14.1265C12.372 14.0929 12.8433 13.9252 13.2472 13.5899C13.9203 13.0533 14.156 12.3491 14.1896 11.5443C14.2569 10.5382 14.2569 9.46509 14.2906 8.35844Z"
                fill="#535353"
              />
              <path
                fillRule="evenodd"
                clipRule="evenodd"
                d="M12.1014 8.49249C12.1014 10.5046 10.4858 12.1142 8.46622 12.1142C6.44668 12.1142 4.83105 10.5046 4.83105 8.45896C4.83105 6.48039 6.48034 4.87073 8.49988 4.87073C10.4858 4.87073 12.1014 6.48039 12.1014 8.49249ZM8.46614 10.8398C9.74518 10.8398 10.8223 9.76666 10.8223 8.49235C10.8223 7.21802 9.74518 6.14491 8.46614 6.14491C7.15344 6.14491 6.11001 7.21802 6.11001 8.49235C6.07636 9.76666 7.15344 10.8398 8.46614 10.8398Z"
                fill="#535353"
              />
              <path
                d="M13.077 4.70276C13.077 5.17225 12.7068 5.57468 12.2357 5.57468C11.7647 5.57468 11.3609 5.17225 11.3945 4.70276C11.3945 4.23327 11.7647 3.86438 12.2357 3.86438C12.7068 3.86438 13.077 4.23327 13.077 4.70276Z"
                fill="#535353"
              />
            </svg>