<svg
              xmlns="http://www.w3.org/2000/svg"
              width="17"
              height="17"
              viewBox="0 0 17 17"
              fill="none"
            >
              <path
                fillRule="evenodd"
                clipRule="evenodd"
                d="M15.5846 3.63584C15.0513 3.89379 14.518 4.07804 13.918 4.15174C14.518 3.74639 14.9846 3.11994 15.1846 2.38295C14.618 2.75145 13.9846 3.00939 13.3513 3.15679C12.818 2.53034 12.0513 2.125 11.218 2.125C9.61797 2.125 8.31797 3.56214 8.31797 5.33092C8.31797 5.58888 8.3513 5.84682 8.38463 6.06792C5.9513 5.92052 3.81797 4.66763 2.38463 2.7146C2.11797 3.19364 1.98463 3.74639 1.98463 4.33598C1.98463 5.44148 2.48463 6.43642 3.28464 7.02601C2.81797 7.02601 2.3513 6.87862 1.9513 6.62066V6.65751C1.9513 8.20521 2.9513 9.53179 4.28464 9.82658C4.0513 9.90028 3.78464 9.93714 3.51797 9.93714C3.31797 9.93714 3.1513 9.90028 2.98464 9.86344C3.3513 11.1532 4.41797 12.0744 5.71797 12.1113C4.71797 12.9588 3.48463 13.4747 2.11797 13.4747C1.88464 13.4747 1.6513 13.4747 1.41797 13.4379C2.71797 14.3591 4.21797 14.875 5.88463 14.875C11.2513 14.875 14.1513 9.97398 14.1513 5.73627C14.1513 5.58888 14.1513 5.44148 14.1513 5.33092C14.718 4.85189 15.218 4.26228 15.5846 3.63584Z"
                fill="#535353"
              />
            </svg>